Coordinates
version=1
nRows=13
nColumns=63
inDegrees=yes

Units are S.I. units (second, meters, Newtons, ...)
If the header above contains a line with 'inDegrees', this indicates whether rotational values are in degrees (yes) or radians (no).

endheader
time	pelvis_tilt	pelvis_list	pelvis_rotation	pelvis_tx	pelvis_ty	pelvis_tz	hip_flexion_r	hip_adduction_r	hip_rotation_r	knee_angle_r	knee_angle_r_beta	ankle_angle_r	subtalar_angle_r	mtp_angle_r	hip_flexion_l	hip_adduction_l	hip_rotation_l	knee_angle_l	knee_angle_l_beta	ankle_angle_l	subtalar_angle_l	mtp_angle_l	L5_S1_Flex_Ext	L5_S1_Lat_Bending	L5_S1_axial_rotation	L4_L5_Flex_Ext	L4_L5_Lat_Bending	L4_L5_axial_rotation	L3_L4_Flex_Ext	L3_L4_Lat_Bending	L3_L4_axial_rotation	L2_L3_Flex_Ext	L2_L3_Lat_Bending	L2_L3_axial_rotation	L1_L2_Flex_Ext	L1_L2_Lat_Bending	L1_L2_axial_rotation	L1_T12_Flex_Ext	L1_T12_Lat_Bending	L1_T12_axial_rotation	Abs_r3	Abs_r2	Abs_r1	Abs_t1	Abs_t2	neck_flexion	neck_bending	neck_rotation	arm_flex_r	arm_add_r	arm_rot_r	elbow_flex_r	pro_sup_r	wrist_flex_r	wrist_dev_r	arm_flex_l	arm_add_l	arm_rot_l	elbow_flex_l	pro_sup_l	wrist_flex_l	wrist_dev_l
5.933333	1.893033	-5.079596	91.836563	-0.005536	1.039822	0.467565	-2.836208	1.828445	5.959411	0.519277	0.009063	15.625643	-0.440636	0.000000	-0.997843	-4.736615	17.456886	2.202734	0.038445	17.139887	-9.191781	0.000000	0.047559	0.295455	-0.137590	0.088322	0.392955	-0.146189	0.078135	0.718369	-0.146189	0.054355	0.718369	-0.120391	0.044163	0.602492	-0.111792	0.027175	0.457660	-0.103193	0.339709	3.342246	-0.765235	0.000000	0.000000	18.778801	2.443060	-0.155031	-0.123147	-9.525174	42.911159	54.200957	0.515681	-10.776023	11.172962	15.908697	-10.083022	69.990722	49.560803	53.734028	-3.458141	7.849123
5.950000	1.861278	-5.115122	91.728242	-0.005314	1.039389	0.467217	-2.828258	1.808415	6.058008	0.522152	0.009113	15.749418	-0.351238	0.000000	-1.031635	-4.711787	17.781875	2.180031	0.038049	17.045644	-9.600391	0.000000	0.050991	0.292306	-0.092754	0.094696	0.388767	-0.098552	0.083774	0.710713	-0.098552	0.058278	0.710713	-0.081160	0.047351	0.596070	-0.075363	0.029136	0.452782	-0.069566	0.364226	3.306623	-0.515873	0.000000	0.000000	19.009809	2.492277	-0.244579	-0.182002	-9.801611	42.909514	54.714651	-0.080985	-10.429951	10.268165	15.878409	-10.134819	70.079605	49.950628	53.846553	-4.204702	6.556552
5.966667	1.817301	-5.164765	91.697655	-0.005185	1.038908	0.466812	-2.811809	1.780747	6.028581	0.523717	0.009141	15.937354	-0.209421	0.000000	-1.038484	-4.672671	18.157118	2.160704	0.037711	16.954097	-10.009614	0.000000	0.055381	0.286869	-0.050888	0.102849	0.381535	-0.054068	0.090986	0.697492	-0.054068	0.063295	0.697492	-0.044527	0.051427	0.584982	-0.041346	0.031645	0.444359	-0.038166	0.395584	3.245114	-0.283022	0.000000	0.000000	19.285506	2.549915	-0.352213	-0.247401	-10.083900	42.716081	55.256429	-0.603033	-9.941349	9.565492	15.858576	-10.152002	70.174740	50.339558	53.977601	-4.750844	5.108278
5.983333	1.757928	-5.233313	91.766637	-0.005181	1.038380	0.466367	-2.783400	1.742344	5.839463	0.521802	0.009107	16.171557	-0.016460	0.000000	-1.009877	-4.617083	18.570452	2.140383	0.037357	16.874620	-10.370212	0.000000	0.060407	0.278662	-0.018874	0.112181	0.370620	-0.020053	0.099242	0.677538	-0.020053	0.069039	0.677538	-0.016514	0.056094	0.568247	-0.015335	0.034516	0.431647	-0.014155	0.431478	3.152275	-0.104970	0.000000	0.000000	19.612435	2.589839	-0.495488	-0.304882	-10.324961	42.288518	55.699445	-0.710748	-9.123816	9.103239	15.816994	-10.119002	70.115653	50.692226	54.239984	-4.957172	3.659778
6.000000	1.697330	-5.323914	91.895080	-0.005292	1.037820	0.465966	-2.729437	1.703888	5.601995	0.520053	0.009077	16.424984	0.114681	0.000000	-0.938048	-4.554111	18.950663	2.127374	0.037130	16.813776	-10.674233	0.000000	0.064912	0.270607	0.013917	0.120547	0.359907	0.014787	0.106643	0.657953	0.014787	0.074187	0.657953	0.012178	0.060277	0.551821	0.011308	0.037090	0.419170	0.010438	0.463657	3.061156	0.077404	0.000000	0.000000	19.992440	2.585149	-0.655936	-0.344844	-10.510513	41.632675	55.963389	-0.356662	-8.070384	8.886365	15.825244	-10.002772	70.007959	50.906187	54.705023	-4.739888	2.139874
6.016667	1.642856	-5.431679	92.087973	-0.005563	1.037253	0.465665	-2.650654	1.669077	5.226347	0.519601	0.009069	16.709949	0.309652	0.000000	-0.822023	-4.489376	19.331089	2.124236	0.037075	16.767376	-10.940427	0.000000	0.068477	0.264309	0.041408	0.127169	0.351531	0.043996	0.112501	0.642641	0.043996	0.078263	0.642641	0.036232	0.063588	0.538979	0.033644	0.039128	0.409415	0.031056	0.489125	2.989916	0.230301	0.000000	0.000000	20.416730	2.485806	-0.856402	-0.256921	-10.667246	41.232779	55.878173	0.346037	-6.799579	8.575172	15.917093	-9.803695	69.974350	50.902380	54.985679	-4.146483	0.599009
6.033333	1.603762	-5.562547	92.372329	-0.006085	1.036675	0.465535	-2.535818	1.643205	4.713719	0.525538	0.009172	17.011300	0.526724	0.000000	-0.642178	-4.426010	19.682339	2.140308	0.037355	16.765023	-11.088296	0.000000	0.071638	0.262564	0.054471	0.133039	0.349211	0.057875	0.117694	0.638399	0.057875	0.081875	0.638399	0.047662	0.066523	0.535421	0.044258	0.040934	0.406712	0.040853	0.511702	2.970181	0.302951	0.000000	0.000000	20.878152	2.329162	-0.962977	-0.061750	-10.770800	40.912443	55.351653	1.948052	-5.387298	8.127315	16.016597	-9.502638	69.724922	50.667122	55.409958	-3.262558	-0.829047
6.050000	1.592371	-5.723489	92.677020	-0.006788	1.036077	0.465623	-2.374364	1.632830	4.190626	0.529607	0.009243	17.293805	0.691095	0.000000	-0.396104	-4.373435	19.971230	2.183853	0.038115	16.819954	-11.128487	0.000000	0.075051	0.267509	0.064432	0.139378	0.355787	0.068459	0.123302	0.650421	0.068459	0.085776	0.650421	0.056378	0.069693	0.545504	0.052351	0.042884	0.414371	0.048324	0.536083	3.026112	0.358354	0.000000	0.000000	21.400302	2.161876	-0.956847	0.236597	-10.830997	40.608560	54.335362	4.669615	-4.020023	7.522630	16.079170	-9.108106	69.133638	50.182924	56.233536	-2.283741	-2.182611
6.066667	1.630992	-5.898133	93.007095	-0.007764	1.035444	0.465974	-2.178481	1.656803	3.787288	0.538829	0.009404	17.510505	0.612129	0.000000	-0.097759	-4.349763	20.253741	2.259054	0.039428	16.933382	-11.100744	0.000000	0.077098	0.284270	0.069485	0.143178	0.378079	0.073828	0.126664	0.691174	0.073828	0.088115	0.691174	0.060800	0.071593	0.579683	0.056457	0.044054	0.440334	0.052114	0.550702	3.215720	0.386457	0.000000	0.000000	21.955885	1.926563	-0.783011	0.421721	-11.191378	35.595900	53.713078	12.447990	-3.270726	7.268812	16.139308	-8.623189	68.379809	49.405035	57.371239	-1.535887	-3.491674
6.083333	1.671642	-6.088368	93.369639	-0.008856	1.034807	0.466547	-1.957553	1.676389	3.454766	0.548695	0.009577	17.659753	0.327429	0.000000	0.245936	-4.316902	20.514737	2.359610	0.041183	17.060070	-10.966208	0.000000	0.078489	0.303745	0.066823	0.145761	0.403981	0.070999	0.128949	0.738527	0.070999	0.089705	0.738527	0.058470	0.072885	0.619398	0.054293	0.044848	0.470502	0.050117	0.560636	3.436029	0.371647	0.000000	0.000000	22.523253	1.663684	-0.520235	0.904210	-11.356203	33.573297	51.918666	19.062703	-2.548556	6.501748	16.177928	-8.134464	67.480351	48.321889	58.923048	-1.086466	-4.643740
6.100000	1.711900	-6.302998	93.710601	-0.009991	1.034114	0.467320	-1.700442	1.684004	3.228843	0.565313	0.009867	17.736752	-0.117988	0.000000	0.632827	-4.272714	20.742720	2.490475	0.043467	17.185709	-10.756272	0.000000	0.079732	0.324993	0.064459	0.148070	0.432241	0.068488	0.130991	0.790188	0.068488	0.091125	0.790188	0.056402	0.074039	0.662726	0.052373	0.045559	0.503414	0.048344	0.569515	3.676387	0.358503	0.000000	0.000000	23.155929	1.409107	-0.189305	1.646070	-11.429474	34.343131	49.136633	24.590470	-1.899537	5.439066	16.166927	-7.691978	66.467894	46.944267	60.839964	-0.956308	-5.610197
6.116667	1.731019	-6.532262	94.066412	-0.011107	1.033328	0.468271	-1.425857	1.666181	3.077759	0.584234	0.010197	17.758286	-0.742287	0.000000	1.052715	-4.200779	21.039235	2.648858	0.046231	17.253175	-10.587185	0.000000	0.080391	0.342724	0.052740	0.149295	0.455823	0.056036	0.132075	0.833299	0.056036	0.091879	0.833299	0.046147	0.074651	0.698883	0.042851	0.045936	0.530880	0.039555	0.574226	3.876964	0.293323	0.000000	0.000000	23.792600	1.198553	0.161689	2.612496	-11.428944	37.907767	45.502518	28.945177	-1.342048	4.249597	15.852603	-7.696182	60.568652	46.207185	67.426856	-1.474267	-5.721109
6.133333	1.764813	-6.772644	94.315395	-0.012208	1.032554	0.469347	-1.127196	1.644815	3.015712	0.611507	0.010673	17.713647	-1.347582	0.000000	1.470525	-4.132295	21.337388	2.806813	0.048988	17.221213	-10.615044	0.000000	0.080514	0.364631	0.048446	0.149523	0.484959	0.051473	0.132277	0.886564	0.051473	0.092020	0.886564	0.042390	0.074766	0.743556	0.039362	0.046006	0.564813	0.036334	0.575107	4.124779	0.269440	0.000000	0.000000	24.437168	0.992610	0.635468	3.814021	-11.528433	43.942264	41.226171	32.273883	-0.872807	2.996000	15.587165	-7.554624	57.905855	44.451760	71.716501	-2.063529	-6.004042
